<?xml version="1.0" standalone="no"?><!DOCTYPE svg PUBLIC "-//W3C//DTD SVG 1.1//EN" "http://www.w3.org/Graphics/SVG/1.1/DTD/svg11.dtd"><svg class="icon" width="48px" height="48.00px" viewBox="0 0 1024 1024" version="1.1" xmlns="http://www.w3.org/2000/svg"><path fill="#707176" d="M228.736 895.168c-28.8 0-52.736-9.6-71.936-28.8-19.2-19.2-28.8-43.2-28.8-72v-139.2c0-9.6 4.8-19.2 9.6-24a36.608 36.608 0 0 1 24-9.6c9.6 0 19.2 4.8 23.936 9.6 4.8 4.8 9.6 14.4 9.6 24v139.2c0 9.6 4.8 24 9.6 28.8 4.8 4.8 14.4 9.6 28.8 9.6h556.416c9.6 0 24-4.8 28.8-9.6 4.8-4.8 9.6-14.4 9.6-28.8v-139.2c0-9.6 4.8-19.2 9.6-24a36.608 36.608 0 0 1 24-9.6c9.6 0 19.2 4.8 23.936 9.6 4.8 4.8 9.6 14.4 9.6 24v139.2c0 28.8-9.6 52.8-28.8 72-19.2 19.2-43.136 28.8-71.936 28.8H228.736zM531.456 137.6c4.8 4.8 9.6 14.4 9.6 24V569.6c0 4.8 4.736 4.8 4.736 4.8h4.8l115.2-120c4.736-4.8 9.6-14.4 19.2-14.4 9.536 0 19.136 4.8 23.936 9.6 4.8 4.8 9.6 14.4 9.6 24s-4.8 19.2-9.6 24L541.056 675.2a36.608 36.608 0 0 1-24 9.6c-9.6 0-19.2-4.8-28.8-14.4l-172.672-172.8a36.672 36.672 0 0 1-9.6-24c0-4.8 4.8-9.6 14.4-19.2a36.608 36.608 0 0 1 24-9.6s14.336 4.8 19.2 9.6l110.272 120h4.8c4.8 0 4.8-4.8 4.8-4.8V166.4c0-9.6 4.8-19.2 9.6-24a36.608 36.608 0 0 1 24-9.6c4.8 0 9.6 0 14.4 4.8z"  /></svg>