<?xml version="1.0" standalone="no"?><!DOCTYPE svg PUBLIC "-//W3C//DTD SVG 1.1//EN" "http://www.w3.org/Graphics/SVG/1.1/DTD/svg11.dtd"><svg t="1748319301676" class="icon" viewBox="0 0 1024 1024" version="1.1" xmlns="http://www.w3.org/2000/svg" p-id="3601" xmlns:xlink="http://www.w3.org/1999/xlink" width="200" height="200"><path d="M274.285714 804.571429v73.142857H73.142857v-73.142857h201.142857z m201.142857-73.142858q14.857143 0 25.714286 10.857143t10.857143 25.714286v146.285714q0 14.857143-10.857143 25.714286t-25.714286 10.857143H329.142857q-14.857143 0-25.714286-10.857143t-10.857142-25.714286v-146.285714q0-14.857143 10.857142-25.714286t25.714286-10.857143h146.285714z m91.428572-219.428571v73.142857H73.142857V512h493.714286zM201.142857 219.428571v73.142858H73.142857V219.428571h128z m749.714286 585.142858v73.142857H530.285714v-73.142857h420.571429zM402.285714 146.285714q14.857143 0 25.714286 10.857143t10.857143 25.714286v146.285714q0 14.857143-10.857143 25.714286t-25.714286 10.857143H256q-14.857143 0-25.714286-10.857143t-10.857143-25.714286V182.857143q0-14.857143 10.857143-25.714286t25.714286-10.857143h146.285714z m365.714286 292.571429q14.857143 0 25.714286 10.857143t10.857143 25.714285v146.285715q0 14.857143-10.857143 25.714285t-25.714286 10.857143H621.714286q-14.857143 0-25.714286-10.857143t-10.857143-25.714285V475.428571q0-14.857143 10.857143-25.714285t25.714286-10.857143h146.285714z m182.857143 73.142857v73.142857h-128V512h128z m0-292.571429v73.142858H457.142857V219.428571h493.714286z" p-id="3602"></path></svg>